<?xml version="1.0"?>
<svg xmlns="http://www.w3.org/2000/svg" viewBox="0 0 50 50">
    <path style="text-indent:0;text-align:start;line-height:normal;text-transform:none;block-progression:tb;-inkscape-font-specification:Sans" d="M 24.90625 1.96875 A 1.0001 1.0001 0 0 0 24.78125 2 A 1.0001 1.0001 0 0 0 24.75 2 C 21.814554 2.0313537 19.01239 2.6205628 16.4375 3.65625 A 1.0001 1.0001 0 0 0 16.375 3.65625 A 1.0001 1.0001 0 0 0 15.96875 3.84375 C 13.34329 4.9663245 10.985443 6.5675263 8.96875 8.53125 A 1.0001 1.0001 0 0 0 8.53125 8.96875 C 6.6018298 10.951338 5.0249016 13.271494 3.90625 15.84375 A 1.0001 1.0001 0 0 0 3.59375 16.625 C 2.6319117 19.07741 2.058934 21.722981 2 24.5 A 1.0043849 1.0043849 0 0 0 2 25.4375 C 2.0545733 28.373992 2.65983 31.179989 3.71875 33.75 A 1.00122 1.00122 0 0 0 3.78125 33.875 C 3.7850168 33.883985 3.7774721 33.89727 3.78125 33.90625 A 1.00122 1.00122 0 0 0 3.8125 33.9375 C 4.9236053 36.565004 6.4849858 38.946065 8.4375 40.96875 A 1.0001 1.0001 0 0 0 9.125 41.59375 C 11.148239 43.529341 13.504035 45.120048 16.125 46.21875 A 1.00122 1.00122 0 0 0 16.3125 46.28125 C 18.930913 47.35257 21.786485 47.972011 24.78125 48 A 1.0001 1.0001 0 0 0 24.8125 48 C 24.874959 48.0005 24.937425 48 25 48 C 25.073004 48 25.145905 48.000681 25.21875 48 A 1.0001 1.0001 0 0 0 25.25 48 C 28.311798 47.967297 31.241345 47.339477 33.90625 46.21875 A 1.00122 1.00122 0 0 0 33.9375 46.1875 C 36.563535 45.077779 38.946508 43.512781 40.96875 41.5625 A 1.0001 1.0001 0 0 0 41.5625 40.9375 C 43.520955 38.90212 45.111105 36.519424 46.21875 33.875 A 1.00122 1.00122 0 0 0 46.28125 33.6875 C 47.355685 31.060219 47.976081 28.193078 48 25.1875 A 1.0001 1.0001 0 0 0 48 25 C 48 24.958523 48.00022 24.916426 48 24.875 A 1.0001 1.0001 0 0 0 48 24.75 C 47.968994 21.830278 47.400027 19.03242 46.375 16.46875 A 1.0001 1.0001 0 0 0 46.09375 15.84375 C 44.958443 13.2356 43.373731 10.874996 41.40625 8.875 A 1.0001 1.0001 0 0 0 41.03125 8.53125 C 39.026326 6.5800864 36.669278 4.9957492 34.0625 3.875 A 1.0001 1.0001 0 0 0 33.625 3.65625 C 31.02718 2.6041678 28.184734 2.0277199 25.21875 2 C 25.208344 1.9999027 25.19791 2.0000834 25.1875 2 A 1.0001 1.0001 0 0 0 24.90625 1.96875 z M 23.90625 4.03125 C 23.936932 4.029698 23.969283 4.0326705 24 4.03125 L 24 7.0625 C 22.27598 7.1576804 20.624773 7.4825375 19.0625 8.03125 L 17.90625 5.25 C 19.794973 4.5747798 21.809459 4.1373111 23.90625 4.03125 z M 26 4.03125 C 28.124995 4.129522 30.181108 4.5367288 32.09375 5.21875 L 30.9375 8.03125 C 29.375227 7.4825375 27.72402 7.1576804 26 7.0625 L 26 4.03125 z M 16.03125 6 L 17.1875 8.8125 C 15.666715 9.5500531 14.277346 10.508853 13.03125 11.625 L 10.875 9.46875 C 12.403824 8.07837 14.14001 6.8931132 16.03125 6 z M 33.96875 6 C 35.872437 6.8960455 37.587914 8.06957 39.125 9.46875 L 36.96875 11.625 C 35.722654 10.508853 34.333285 9.5500531 32.8125 8.8125 L 33.96875 6 z M 9.46875 10.875 L 11.625 13.03125 C 10.508853 14.277346 9.5500531 15.666715 8.8125 17.1875 L 6.03125 16.0625 C 6.9256334 14.165806 8.0748227 12.407602 9.46875 10.875 z M 40.53125 10.875 C 41.928904 12.410507 43.07308 14.161161 43.96875 16.0625 L 41.1875 17.1875 C 40.449947 15.666715 39.491147 14.277346 38.375 13.03125 L 40.53125 10.875 z M 19 17 C 20.105 17 21 17.895 21 19 C 21 19.178 20.9805 19.335 20.9375 19.5 L 23.71875 22.3125 C 24.10975 22.1245 24.538 22 25 22 C 25.462 22 25.89025 22.1245 26.28125 22.3125 L 29.0625 19.5 C 29.0195 19.335 29 19.178 29 19 C 29 17.895 29.895 17 31 17 C 32.105 17 33 17.895 33 19 C 33 20.105 32.105 21 31 21 C 30.822 21 30.665 20.9805 30.5 20.9375 L 27.6875 23.71875 C 27.8755 24.10975 28 24.538 28 25 C 28 25.462 27.8755 25.89025 27.6875 26.28125 L 30.5 29.0625 C 30.665 29.0195 30.822 29 31 29 C 32.105 29 33 29.895 33 31 C 33 32.105 32.105 33 31 33 C 29.895 33 29 32.105 29 31 C 29 30.822 29.0195 30.665 29.0625 30.5 L 26.28125 27.6875 C 25.89025 27.8755 25.462 28 25 28 C 24.538 28 24.10975 27.8755 23.71875 27.6875 L 20.9375 30.5 C 20.9805 30.665 21 30.822 21 31 C 21 32.105 20.105 33 19 33 C 17.895 33 17 32.105 17 31 C 17 29.895 17.895 29 19 29 C 19.178 29 19.335 29.0195 19.5 29.0625 L 22.3125 26.28125 C 22.1245 25.89025 22 25.462 22 25 C 22 24.538 22.1245 24.10975 22.3125 23.71875 L 19.5 20.9375 C 19.335 20.9805 19.178 21 19 21 C 17.895 21 17 20.105 17 19 C 17 17.895 17.895 17 19 17 z M 5.25 17.90625 L 8.03125 19.0625 C 7.4825375 20.624773 7.1576804 22.27598 7.0625 24 L 4.03125 24 C 4.1297885 21.860468 4.5601557 19.830644 5.25 17.90625 z M 44.75 17.90625 C 45.437692 19.826877 45.870123 21.864915 45.96875 24 L 42.9375 24 C 42.84232 22.27598 42.517462 20.624773 41.96875 19.0625 L 44.75 17.90625 z M 4.03125 26 L 7.0625 26 C 7.1576804 27.72402 7.4825375 29.375227 8.03125 30.9375 L 5.25 32.09375 C 4.5623085 30.173123 4.1298767 28.135085 4.03125 26 z M 42.9375 26 L 45.96875 26 C 45.870123 28.135085 45.437692 30.173123 44.75 32.09375 L 41.96875 30.9375 C 42.517462 29.375227 42.84232 27.72402 42.9375 26 z M 8.8125 32.8125 C 9.5500531 34.333285 10.508853 35.722654 11.625 36.96875 L 9.46875 39.125 C 8.0710963 37.589493 6.9269198 35.838839 6.03125 33.9375 L 8.8125 32.8125 z M 41.1875 32.8125 L 43.96875 33.9375 C 43.07308 35.838839 41.928904 37.589493 40.53125 39.125 L 38.375 36.96875 C 39.491147 35.722654 40.449947 34.333285 41.1875 32.8125 z M 13.03125 38.375 C 14.277346 39.491147 15.666715 40.449947 17.1875 41.1875 L 16.03125 44 C 14.127563 43.103955 12.412086 41.93043 10.875 40.53125 L 13.03125 38.375 z M 36.96875 38.375 L 39.125 40.53125 C 37.587914 41.93043 35.872437 43.103955 33.96875 44 L 32.8125 41.1875 C 34.333285 40.449947 35.722654 39.491147 36.96875 38.375 z M 19.0625 41.96875 C 20.624773 42.517462 22.27598 42.84232 24 42.9375 L 24 45.96875 C 21.875005 45.870478 19.818892 45.463271 17.90625 44.78125 L 19.0625 41.96875 z M 30.9375 41.96875 L 32.09375 44.78125 C 30.181108 45.463271 28.124995 45.870478 26 45.96875 L 26 42.9375 C 27.72402 42.84232 29.375227 42.517462 30.9375 41.96875 z"/>
</svg>
